# Blender v2.79 (sub 0) OBJ File: 'default door steel 3d.blend'
# www.blender.org
o Cylinder_Cylinder_door
v 0.375000 1.375000 -0.375000
v -0.500000 -0.500000 -0.375000
v 0.500000 -0.500000 -0.375000
v 0.375000 0.625000 -0.375000
v 0.500000 1.500000 -0.375000
v -0.500000 1.500000 -0.375000
v 0.500000 -0.500000 -0.500000
v -0.500000 -0.500000 -0.500000
v -0.500000 1.500000 -0.500000
v 0.500000 1.500000 -0.500000
v -0.375000 0.625000 -0.500000
v 0.312500 0.687500 -0.453125
v -0.312500 1.312500 -0.453125
v -0.375000 1.375000 -0.375000
v -0.375000 1.375000 -0.500000
v 0.375000 1.375000 -0.500000
v 0.312500 1.312500 -0.421875
v 0.312500 1.312500 -0.453125
v -0.375000 0.625000 -0.375000
v -0.312500 0.687500 -0.453125
v -0.312500 0.687500 -0.421875
v 0.375000 0.625000 -0.500000
v 0.312500 0.687500 -0.421875
v -0.312500 1.312500 -0.421875
v -0.312500 0.687500 -0.436500
v 0.312500 1.312500 -0.436500
v -0.312500 1.312500 -0.436500
v 0.312500 0.687500 -0.436500
v -0.312500 0.687500 -0.437500
v 0.312500 1.312500 -0.437500
v -0.312500 1.312500 -0.437500
v 0.312500 0.687500 -0.437500
vt 0.789474 0.562500
vt 0.473684 0.562500
vt 0.421053 0.000000
vt 0.842105 0.000000
vt 0.368421 0.562500
vt 0.052632 0.562500
vt 0.000000 0.000000
vt 0.421053 0.000000
vt 0.052632 0.937500
vt 0.000000 1.000000
vt 0.421053 1.000000
vt 0.368421 0.937500
vt 0.789474 0.937500
vt 0.842105 1.000000
vt 0.421053 1.000000
vt 0.473684 0.937500
vt 1.000000 1.000000
vt 0.947368 1.000000
vt 0.947368 0.500000
vt 1.000000 0.500000
vt 1.000000 -0.000000
vt 1.000000 0.500000
vt 0.947368 0.500000
vt 0.947368 -0.000000
vt 0.842105 1.000000
vt 0.842105 0.000000
vt 0.894737 0.000000
vt 0.894737 1.000000
vt 0.947368 0.000000
vt 0.947368 1.000000
vt 0.894737 1.000000
vt 0.894737 0.000000
vt 1.000000 0.906250
vt 0.973684 0.906250
vt 0.973684 0.593750
vt 1.000000 0.593750
vt 0.763158 0.906250
vt 0.500000 0.906250
vt 0.868421 0.906250
vt 0.868421 0.593750
vt 0.894737 0.593750
vt 0.894737 0.906250
vt 0.500000 0.593750
vt 0.763158 0.593750
vt 0.947368 0.937500
vt 0.947368 0.937500
vt 0.894737 0.937500
vt 0.894737 0.937500
vt 0.947368 0.937500
vt 0.947368 0.937500
vt 0.894737 0.937500
vt 0.894737 0.937500
vt 1.000000 0.406250
vt 0.973684 0.406250
vt 0.973684 0.093750
vt 1.000000 0.093750
vt 0.078947 0.593750
vt 0.078947 0.906250
vt 0.342105 0.593750
vt 0.342105 0.906250
vt 0.078947 0.906250
vt 0.078947 0.593750
vt 0.342105 0.593750
vt 0.342105 0.906250
vt 0.500000 0.906250
vt 0.500000 0.593750
vt 0.763158 0.593750
vt 0.763158 0.906250
vt 0.947368 0.906250
vt 0.921053 0.906250
vt 0.921053 0.593750
vt 0.947368 0.593750
vn 0.0000 0.0000 -1.0000
vn 0.0000 0.0000 1.0000
vn 0.0000 -1.0000 0.0000
vn 0.0000 1.0000 0.0000
vn 1.0000 0.0000 0.0000
vn -1.0000 0.0000 0.0000
vn -0.0000 -0.6000 -0.8000
vn 0.0000 0.6000 -0.8000
vn 0.7071 0.7071 0.0000
vn 0.6000 0.0000 -0.8000
vn -0.7071 0.7071 0.0000
vn 0.6000 0.0000 0.8000
vn 0.0000 0.6000 0.8000
vn -0.6000 -0.0000 -0.8000
vn -0.6000 0.0000 0.8000
vn 0.0000 -0.6000 0.8000
s off
f 11/1/1 22/2/1 7/3/1 8/4/1
f 4/5/2 19/6/2 2/7/2 3/8/2
f 2/7/2 19/6/2 14/9/2 6/10/2
f 3/8/2 5/11/2 1/12/2 4/5/2
f 5/11/2 6/10/2 14/9/2 1/12/2
f 15/13/1 11/1/1 8/4/1 9/14/1
f 10/15/1 16/16/1 15/13/1 9/14/1
f 16/16/1 10/15/1 7/3/1 22/2/1
f 2/17/3 8/18/3 7/19/3 3/20/3
f 6/21/4 5/22/4 10/23/4 9/24/4
f 5/25/5 3/26/5 7/27/5 10/28/5
f 2/29/6 6/30/6 9/31/6 8/32/6
f 24/33/3 13/34/3 18/35/3 17/36/3
f 13/37/7 15/13/7 16/16/7 18/38/7
f 24/39/5 21/40/5 20/41/5 13/42/5
f 12/43/8 22/2/8 11/1/8 20/44/8
f 14/45/9 24/46/9 13/47/9 15/48/9
f 20/44/10 11/1/10 15/13/10 13/37/10
f 17/49/11 1/50/11 16/51/11 18/52/11
f 23/53/4 12/54/4 20/55/4 21/56/4
f 14/9/12 19/6/12 21/57/12 24/58/12
f 21/57/13 19/6/13 4/5/13 23/59/13
f 16/16/14 22/2/14 12/43/14 18/38/14
f 23/59/15 4/5/15 1/12/15 17/60/15
f 14/9/16 24/58/16 17/60/16 1/12/16
f 27/61/2 25/62/2 28/63/2 26/64/2
f 30/65/1 32/66/1 29/67/1 31/68/1
f 17/69/6 18/70/6 12/71/6 23/72/6
