# Blender v2.79 (sub 0) OBJ File: 'door-woodglass-typea.blend'
# www.blender.org
o Cylinder
v -0.499750 1.499500 -0.499969
v 0.499750 1.499500 -0.499969
v -0.499750 -0.499500 -0.499969
v 0.499750 -0.499500 -0.499969
v 0.499750 1.499500 -0.375031
v -0.499750 1.499500 -0.375031
v 0.499750 -0.499500 -0.375031
v -0.499750 -0.499500 -0.375031
v 0.499750 -0.374531 -0.499969
v -0.499750 1.312031 -0.499969
v -0.499750 -0.374531 -0.375031
v 0.499750 1.312031 -0.375031
v -0.187375 0.437531 -0.499969
v 0.187375 0.437531 -0.499969
v 0.187375 1.312031 -0.499969
v 0.187375 0.437531 -0.375031
v -0.187375 0.437531 -0.375031
v -0.187375 1.312031 -0.375031
v 0.187375 1.312031 -0.375031
v -0.187375 1.312031 -0.499969
v 0.499750 1.312031 -0.499969
v -0.499750 -0.374531 -0.499969
v -0.499750 1.312031 -0.375031
v 0.499750 -0.374531 -0.375031
v -0.187375 -0.374531 -0.499969
v 0.187375 -0.374531 -0.499969
v 0.187375 -0.374531 -0.375031
v -0.187375 -0.374531 -0.375031
v 0.187500 0.437500 -0.438458
v -0.187500 0.437500 -0.438458
v 0.187500 1.312500 -0.438458
v -0.187500 1.312500 -0.438458
v -0.187500 0.437500 -0.436542
v 0.187500 0.437500 -0.436542
v -0.187500 1.312500 -0.436542
v 0.187500 1.312500 -0.436542
vt 0.552632 0.906250
vt 0.710526 0.906250
vt 0.842105 0.906250
vt 0.842105 1.000000
vt 0.421053 1.000000
vt 0.421053 0.906250
vt 0.894737 0.906250
vt 0.894737 1.000000
vt 0.842105 0.062500
vt 0.842105 0.000000
vt 0.894737 0.000000
vt 0.894737 0.062500
vt 0.131579 0.906250
vt 0.289474 0.906250
vt 0.421053 0.906250
vt 0.421053 1.000000
vt 0.000000 1.000000
vt 0.000000 0.906250
vt 0.947368 0.500000
vt 0.947368 0.000000
vt 1.000000 0.000000
vt 1.000000 0.500000
vt 0.947368 1.000000
vt 0.947368 0.500000
vt 1.000000 0.500000
vt 1.000000 1.000000
vt 0.421053 0.062500
vt 0.289474 0.468750
vt 0.289474 0.062500
vt 0.710526 0.468750
vt 0.710526 0.062500
vt 0.894737 0.062500
vt 0.894737 0.000000
vt 0.947368 0.000000
vt 0.947368 0.062500
vt 0.947368 0.906250
vt 0.947368 1.000000
vt 0.894737 1.000000
vt 0.894737 0.906250
vt 0.552632 0.062500
vt 0.552632 0.468750
vt 0.421053 0.062500
vt 0.131579 0.062500
vt 0.131579 0.468750
vt 0.000000 0.062500
vt 0.000000 0.000000
vt 0.421053 0.000000
vt 0.421053 0.000000
vt 1.000000 0.343750
vt 0.947368 0.343750
vt 0.947368 0.156250
vt 1.000000 0.156250
vt 1.000000 0.843750
vt 0.947368 0.843750
vt 0.947368 0.656250
vt 1.000000 0.656250
vt 0.552632 0.468750
vt 0.710526 0.468750
vt 0.710526 0.906250
vt 0.552632 0.906250
vt 0.131579 0.468750
vt 0.289474 0.468750
vt 0.289474 0.906250
vt 0.131579 0.906250
vt 0.894737 0.906250
vt 0.894737 0.468750
vt 0.947368 0.468750
vt 0.947368 0.906250
vt 0.894737 0.468750
vt 0.894737 0.906250
vt 0.842105 0.906250
vt 0.842105 0.468750
vn 0.0000 0.0000 -1.0000
vn -1.0000 0.0000 0.0000
vn 0.0000 0.0000 1.0000
vn 0.0000 1.0000 0.0000
vn 0.0000 -1.0000 0.0000
vn 1.0000 0.0000 0.0000
s off
f 15/1/1 20/2/1 10/3/1 1/4/1 2/5/1 21/6/1
f 23/7/2 6/8/2 1/4/2 10/3/2 22/9/2 3/10/2 8/11/2 11/12/2
f 18/13/3 19/14/3 12/15/3 5/16/3 6/17/3 23/18/3
f 2/19/4 1/20/4 6/21/4 5/22/4
f 3/23/5 4/24/5 7/25/5 8/26/5
f 24/27/3 12/15/3 19/14/3 16/28/3 27/29/3
f 22/9/1 10/3/1 20/2/1 13/30/1 25/31/1
f 24/32/6 7/33/6 4/34/6 9/35/6 21/36/6 2/37/6 5/38/6 12/39/6
f 26/40/1 14/41/1 15/1/1 21/6/1 9/42/1
f 28/43/3 17/44/3 18/13/3 23/18/3 11/45/3
f 8/46/3 7/47/3 24/27/3 27/29/3 28/43/3 11/45/3
f 4/48/1 3/10/1 22/9/1 25/31/1 26/40/1 9/42/1
f 16/49/4 14/50/4 13/51/4 17/52/4
f 18/53/5 20/54/5 15/55/5 19/56/5
f 16/28/3 17/44/3 28/43/3 27/29/3
f 13/30/1 14/41/1 26/40/1 25/31/1
f 29/57/1 30/58/1 32/59/1 31/60/1
f 33/61/3 34/62/3 36/63/3 35/64/3
f 18/65/6 17/66/6 13/67/6 20/68/6
f 16/69/2 19/70/2 15/71/2 14/72/2
