# Blender v2.79 (sub 0) OBJ File: 'door-wrought-iron.blend'
# www.blender.org
o Cylinder
v -0.500000 1.500000 -0.500000
v 0.500000 1.500000 -0.500000
v -0.500000 -0.500000 -0.500000
v 0.500000 -0.500000 -0.500000
v 0.500000 1.500000 -0.375000
v -0.500000 1.500000 -0.375000
v 0.500000 -0.500000 -0.375000
v -0.500000 -0.500000 -0.375000
v -0.484375 1.484375 -0.438451
v 0.484375 1.484375 -0.438451
v -0.484375 -0.484375 -0.438451
v 0.484375 -0.484375 -0.438451
v 0.484375 1.484375 -0.436547
v -0.484375 1.484375 -0.436547
v 0.484375 -0.484375 -0.436547
v -0.484375 -0.484375 -0.436547
v -0.468750 -0.500000 -0.500000
v 0.468750 -0.500000 -0.500000
v -0.500000 1.484375 -0.500000
v 0.500000 1.484375 -0.500000
v 0.500000 1.484375 -0.375000
v -0.500000 1.484375 -0.375000
v -0.500000 -0.484375 -0.500000
v 0.500000 -0.484375 -0.500000
v 0.500000 -0.484375 -0.375000
v -0.500000 -0.484375 -0.375000
v -0.484375 1.484375 -0.500000
v -0.484375 -0.484375 -0.500000
v -0.484375 1.484375 -0.375000
v -0.484375 -0.484375 -0.375000
v 0.484375 1.484375 -0.500000
v 0.484375 -0.484375 -0.500000
v 0.484375 1.484375 -0.375000
v 0.484375 -0.484375 -0.375000
vt 0.006579 0.007812
vt 0.414474 0.007812
vt 0.414474 0.992188
vt 0.006579 0.992188
vt 0.427632 0.007812
vt 0.835526 0.007812
vt 0.835526 0.992188
vt 0.427632 0.992188
vt 0.421053 0.007812
vt 0.421053 0.992188
vt 0.414474 0.992188
vt 0.414474 0.007812
vt 0.842105 0.007812
vt 0.842105 0.992188
vt 0.835526 0.992188
vt 0.835526 0.007812
vt 0.842105 0.992188
vt 0.842105 0.007812
vt 0.894737 0.007812
vt 0.894737 0.992188
vt 0.006579 0.007812
vt 0.006579 0.992188
vt 0.000000 0.992188
vt 0.000000 0.007812
vt 0.427632 0.007812
vt 0.427632 0.992188
vt 0.421053 0.992188
vt 0.421053 0.007812
vt 0.947368 1.000000
vt 0.947368 0.500000
vt 1.000000 0.500000
vt 1.000000 1.000000
vt 0.000000 1.000000
vt 0.421053 1.000000
vt 0.421053 1.000000
vt 0.842105 1.000000
vt 0.947368 0.500000
vt 0.947368 0.000000
vt 1.000000 0.000000
vt 1.000000 0.500000
vt 0.421053 0.000000
vt 0.000000 0.000000
vt 0.842105 0.000000
vt 0.421053 0.000000
vt 0.947368 0.007812
vt 0.947368 0.992188
vt 0.894737 0.992188
vt 0.894737 0.007812
vt 0.947368 0.000000
vt 0.947368 1.000000
vt 0.894737 1.000000
vt 0.894737 0.000000
vt 0.947368 0.000000
vt 1.000000 0.000000
vt 1.000000 0.500000
vt 0.947368 0.500000
vt 0.894737 0.000000
vt 0.894737 1.000000
vt 0.947368 0.500000
vt 1.000000 0.500000
vt 1.000000 1.000000
vt 0.947368 1.000000
vn 0.0000 0.0000 1.0000
vn 0.0000 0.0000 -1.0000
vn -1.0000 -0.0000 0.0000
vn 0.0000 -1.0000 0.0000
vn 0.0000 1.0000 0.0000
vn 1.0000 -0.0000 0.0000
s off
f 16/1/1 15/2/1 13/3/1 14/4/1
f 12/5/2 11/6/2 9/7/2 10/8/2
f 25/9/1 21/10/1 33/11/1 34/12/1
f 23/13/2 19/14/2 27/15/2 28/16/2
f 31/17/3 32/18/3 34/19/3 33/20/3
f 30/21/1 29/22/1 22/23/1 26/24/1
f 32/25/2 31/26/2 20/27/2 24/28/2
f 19/29/4 20/30/4 21/31/4 22/32/4
f 6/33/1 22/23/1 21/10/1 5/34/1
f 2/35/2 20/27/2 19/14/2 1/36/2
f 24/37/5 23/38/5 26/39/5 25/40/5
f 7/41/1 25/9/1 26/24/1 8/42/1
f 3/43/2 23/13/2 24/28/2 4/44/2
f 28/45/6 27/46/6 29/47/6 30/48/6
f 4/49/6 2/50/6 5/51/6 7/52/6
f 1/53/5 6/54/5 5/55/5 2/56/5
f 1/36/3 3/43/3 8/57/3 6/58/3
f 4/59/4 7/60/4 8/61/4 3/62/4
